<?xml version="1.0" encoding="UTF-8"?>
<svg xmlns="http://www.w3.org/2000/svg" viewBox="0 0 374.96 276.36">
    <g id="bg">
        <rect width="100%" height="100%" fill="#efdecd" />
        <g id="plane" fill="#333">
            <path
                d="M276.01,168.07l1.75-4.21c.35-.83.51-2.28.41-3.13-.51-4.7-6.43-3.59-9.39-2.87l-5.66,1.38c-3.67.89-7.16.96-10.95.4-2.21-3.39-1.12-3.27-4.79-6.17,3.93-1.46,7.38-2.94,10.98-4.52l7.34-3.24,22.26-9.65,7.93-3.41c4.32-1.86,14.5-5.54,18.83-5.49,3.53.04,6.99.37,10.27,2.13-2,.14-10.29-1.09-9.72,2.4.47,2.86,6.83-1.25,14.11.64,1.37.36,2.8,1.1,3.38,2.43,1.71,3.9-3.42,8.29-6.3,10.17-5.68,3.7-11.53,6.86-17.77,9.56l-10.97,4.74-14.81,6.31-4.51,1.92c-.75.32-1.18.52-2.41.62ZM291.42,140.76c.43.77,1.28.88,1.95.49.43-.25.83-.97.82-1.62,0-.58-.74-1.21-1.43-1.2-1.09.02-1.89,1.33-1.34,2.33ZM288.96,140.95c-.57-.61-1.38-.46-1.88.04-.59.59-.91,1.57-.27,2.26.53.57,1.6.36,2.06-.09.58-.57.72-1.53.1-2.21ZM284.58,144c.04-.44-.74-1.15-1.16-1.23s-1.32.33-1.61.71c-.58.74-.44,1.56.11,2.05s1.43.41,1.95-.16c.28-.3.67-.93.71-1.38ZM276.78,147.14c.43,1.28,1.97,1.02,2.58.27.56-.68.51-2.04-.57-2.36-1.02-.3-2.38.98-2.01,2.1ZM274.6,149.49c.5-.7.4-1.57-.15-2.03-.63-.54-1.29-.28-1.9.31-.71.69-.77,1.56-.06,2.14.6.49,1.56.34,2.11-.42ZM270.13,150.43c-.07-.46-.62-1.01-.94-.97-.39.05-1.02.27-1.29.51-.56.49-.79,1.35-.43,1.94.31.5,1.21.8,1.77.43.63-.41,1.03-.98.89-1.91ZM265.24,152.16c-.79-.91-1.96-.41-2.25.35s-.2,1.87.93,2.01c.4.05,1.07-.4,1.28-.73.22-.35.32-1.31.05-1.62ZM260.14,155.93c.72-.54.82-1.54.22-2.18-.28-.31-1.18-.39-1.57-.23-.33.14-.9.68-.96,1.09-.09.57.08,1.36.65,1.63.45.21,1.09.11,1.65-.32Z"
            />
            <path
                d="M202.82,195.8l-10.71,1.79-5.49.74-5.58.7c-2.36.29-4.69.35-7.12.49-1.3.08-2.84-.49-3.29-1.81.11-.31.89-.44,1.21-.58,2.9-1.31,5.57-2.79,8.34-4.33,1.77-.99,5.98-3.29,7.17-4.86-.83-.79-1.63-.99-2.68-1.14l-8.07-1.14c-1.04-.15-2.04-.4-3.05-.77l-6.57-18.32c-.32-.9-.8-2.49-.31-3.22.57-.85,4.39-3.25,6.19-1.49l11.9,11.61c2.39,2.34,4.76,4.45,7.35,6.52,1.02.82,2.24.78,3.41.32,2.47-.97,4.81-1.99,7.26-3.09l9.45-4.24,4.88-1.9c2.65,5.56,7.21,3.59,7.99,4.39.16.17-.31.72-.51.85-1.83,1.15-3.57,2.13-5.11,3.61-1.71,1.64-2.81,4.2-1.74,6.42,1.18,2.44,3.89,3.63,6.49,3.81.35.02.68.19,1.15.49l-2.14.53c-6.85,1.69-13.48,3.46-20.43,4.62ZM213.54,178.94c.42-.52.43-1.46.02-1.89-.35-.38-1.31-.43-1.81-.12s-.82,1.01-.76,1.47.56,1.1.99,1.21c.53.14,1.18-.19,1.56-.67ZM208.88,180.82c.3-.54.22-1.24-.06-1.54-.34-.37-1.05-.46-1.6-.26s-1.06,1.03-.99,1.57c.06.42.68,1.07,1.09,1.17.5.12,1.24-.37,1.56-.94ZM204.2,181.77c-.09-.43-.76-.92-1.2-.87-.88.11-1.38.72-1.51,1.48-.08.48.36,1.48.91,1.55,1.25.15,2.04-1.02,1.8-2.16ZM199.36,184.02c-.03-.72-.69-1.19-1.22-1.18-.4.01-1.1.44-1.34.91s-.05,1.31.3,1.73c.27.32,1.03.42,1.45.21.55-.27.84-.8.8-1.68Z"
            />
            <path
                d="M230.35,188.2c-2.63.4-9.88.31-10.75-2.88-.31-1.12-.02-2.18.7-3.07,2.96-3.72,8-5.1,7.77-5.79l-.43-1.32c5.43-.98,10.72-2.15,15.84-4.17s7.39-3.73,8.47-9.28l5.25.29c1.84.1,3.74.06,5.58-.41l9.69-2.46c1.29-.33,3.2.06,3.61,1.37.48,1.55-.22,3.15-.78,4.56-2.16,5.34-5.83,8-10.95,10.56-8.04,4.02-16.21,7.43-24.74,10.36-3.12,1.07-6.04,1.76-9.26,2.25Z"
            />
            <path
                d="M221.65,161.84c-2.68,2.16-5.22,4.53-4.87,8.46l-12.76-4.01-15.35-4.54-26.2-8.13-12.83-3.93c-3.13-.96,6.44-3.39,6.69-3.5l14.32,2.32,9.76,1.63,17.48,2.88,29.7,5.19-5.95,3.65Z"
            />
            <path
                d="M244.25,168.17c-3.62,1.85-10.09,3.65-14.07,4.36-2.73.48-8.25,1.66-10.17-.65-2.2-2.64-.19-5.91,2.38-7.85,5.51-4.15,11.65-7.25,18.24-9.57.23,1.05-.23,1.63-.31,2.41-.37,3.52.66,7.18,2.97,9.85.39.45.78.78.96,1.45Z"
            />
            <path
                d="M277.45,186.67l-3.43.51c-1.2.18-2.32.02-3.13-.73s-1.34-1.86-1.21-3.13c.18-1.73,1.24-3.06,2.59-4.14,3.29-2.64,6.87-4.64,10.55-6.71,2.18-1.23,4.35-2.39,7.05-2.36-1.39,4.22-.78,8.4,2.07,11.61.24.28-.02,1.06-.35,1.2-4.34,1.77-9.35,3.03-14.14,3.74Z"
            />
            <path
                d="M174.24,193.99c-.64.36-1.5,1.07-2.25.84l-24.09-7.2c-1.21-.36-2.3-.47-3.41-1.35,2.15-1.68,4.86-2.88,7.73-2.45l22.2,3.37,9.06,1.51-9.25,5.27Z"
            />
            <path
                d="M300.15,195.25c-1.48.82-2.67.55-4.01.07l-6.94-2.46-12.5-3.93,6.49-1.3c3.74-.75,7.14-1.75,10.61-3.59,1.46,1.26,2.75,2.48,4.07,3.76l4.9,4.76c.25.25.12,1.17-.19,1.35l-2.44,1.35Z"
            />
            <path
                d="M279.19,172.51c-2.99,1.63-10.14,5.45-11.05,8.7-.97,1.67-.67,3.49.17,5.4l-13.43-4.31,11.37-5.75c3.18-1.61,5.89-3.62,8.38-6.18.39-.3.98-.4,1.37-.19,2.63,1.42,4.78,1.48,3.2,2.34Z"
            />
            <path
                d="M152.22,145.91l-3.28.86c-.82.21-1.64.39-2.56.35l-5.51-9.4c-1.15-1.97-2.3-3.95-3.34-6.08.45-.83,2.43-1.53,3.2-.81,1.9,1.76,3.34,3.89,4.94,5.93l4.26,5.41c1,1.27,2.09,2.11,3.53,3.04-.2.25-.75.57-1.24.7Z"
            />
            <path
                d="M247.76,165.98c-3.66,3.21-7.99-9.17-4.23-11.44.74-.44,2.01-.04,2.8.44,3.49,2.12,4.56,8.25,1.43,11Z"
            />
            <path
                d="M295.77,180.64c-.6.67-1.63.66-2.26.02-3.55-3.63-3.36-9.72-1.22-10.54.66-.25,1.88-.12,2.41.27,1.79,1.34,2.23,3.34,2.34,5.45.09,1.72.03,3.36-1.27,4.8Z"
            />
            <path
                d="M197.75,203.11l-10.39-2.88c1.05-.42,2.11-.59,3.15-.64,2.72-.14,5.18-.44,7.84-.81,1.07.1,2.53,1.5,2.78,2.53-.38,1-2.19,2.13-3.38,1.8Z"
            />
        </g>
        <g id="trees-section" fill="#166734">
            <path
                d="M313.68,264.82l-4.52-.1-11.78-.13c-1.36-.02-2.08-1.72-2.16-2.73-.1-1.22.62-2.64,1.99-2.92.77-.16,1.74-.31,2.62-.31l34.04-.05c1.89,0,3.11,1.36,3.19,3.05s-1.25,3.24-3.19,3.23l-20.18-.04Z"
            />
            <path
                d="M284.7,264.77c-3.83.11-7.53,0-11.29,0h-3.18s-15.02.05-15.02.05c-1.77,0-3.13-1.43-3.22-3-.1-1.74,1.32-3.21,3.25-3.21l29.17-.05c1.69,0,2.76,1.01,2.96,2.73.17,1.49-.76,3.42-2.67,3.48Z"
            />
            <path
                d="M289.6,276.1l-14.5.02c-1.73,0-2.79-1.83-2.64-3.14.22-1.83,1.49-2.92,3.32-2.91l13.66.05c1.56,0,2.51,1.44,2.65,2.79.12,1.23-.78,3.18-2.49,3.18Z"
            />
            <path
                d="M339.66,253.62l-14.16-.06c-1.54,0-2.48-1.54-2.52-2.75-.04-1.33.88-3.01,2.48-3.01h14.16c1.42.01,2.24,1.72,2.26,2.73.03,1.4-.79,2.37-2.22,3.09Z"
            />
            <path
                d="M372.57,232.42c-1.7-2.11-3.91-3.51-6.36-4.74-3.15-1.5-6.3-2.48-9.91-3.46l-.03-12.8c3.94,3.31,9.59,6.29,14.2,4.37.66-.27,1.7-1.15,1.44-1.88-.26-.72-1-1.29-1.81-1.71-8.53-4.45-14.22-13.92-11.35-11.77,2.59,1.93,5.61,3.19,8.86,2.94,2.66-.2,3.69-2.11,3.24-2.86-.15-.25-.55-.54-.94-.75-4.8-2.57-9.37-5.93-11.97-11.02,2.93,1.22,5.34,2.51,8.25,2.16,1.33-.16,2.66-.77,2.96-2.11-.12-.32-.57-.88-.86-1.04-4.04-2.36-9.55-6.34-10.84-11.01,2.83,1.08,5.35,2.77,8.11,1.8.53-.19,1.06-.65,1.21-1.01.16-.39.02-1.34-.24-1.69-5.64-2.73-9.44-7.88-10.57-14.06-.21-1.13-.38-2.17-.98-3.21-.29-.51-1.35-.77-1.89-.66-.49.09-1.34.73-1.49,1.29l-1.31,4.81c-1.3,4.79-4.36,8.64-8.59,11.25-.57.35-1.56,1.15-1.5,1.76.14,1.48,1.8,1.82,3.06,1.77,2.14-.08,3.77-1.1,5.97-2.06-1.59,4.86-6.24,8.61-10.39,11.29-.37.24-.76.98-.69,1.34.34,1.74,3.31,1.69,4.87,1.41,2.03-.36,3.66-1.38,5.83-2.35-2.42,5.18-7.01,9.03-12.14,11.58-.38.19-1.14.65-1.48.42-3.04-2-6.18-6.31-4.14-5.15l1.36.77.33.17s.23.09.31.11l.37.11.43.12c2.02.57,4.58-.13,4.59-1.08v-.43s-.09-.45-.09-.45c-3.19-1.98-6.12-4.2-7.98-7.87l2.31.93c.98.4,4.57.61,4.46-1.39-.11-1.94-5.58-1.83-8.08-10.87-.28-1.03-.8-3.26-2.23-2.93-1.92.45-.87,4.34-4.33,8.88-1.38,1.81-3.26,3.31-5,4.77-.23.19-.33,1.02-.13,1.23,1.47,1.55,4.15.51,5.83-.52,1.88-1.15-1.42,3.91-4.37,5.86l-2.64,1.74c-.37.24-.89.8-.86,1.16.13,1.68,3.3,1.64,4.74,1.08,1.14-.44,2.08-.99,3.34-1.57-1.87,3.72-4.97,6.28-8.4,8.43-.31.19-.67.69-.69.98-.02.29.33.9.62,1.05,2.58,1.3,5.43-.09,7.95-1.3.06-.1-.03.51-.12.65-3.73,6-9.65,7.98-9.81,9-.14.94,4.19,4.22,10.85-1.07l.62-.49c.12-.1.31.51.31.67l-.07,7.31-9.5.72c-8.86.67-17.3,3.06-26.01,5.11-13.22,3.12-26.31,5.84-39.78,7.27l-5.06.54-5.07.47-8.3.51-4.49.28-23.32-.02-5.05-.24-8.06-.5-7.41-.55-10.57-1-4.57-.47-12.01-1.48-13.44-1.94-16.72-2.92-.22-3.81c-.06-1.07-.32-4.83.26-5.41.11-.11,3.36,3.55,8.42,3.31,2.48-.12,3.88-1.67,3.37-2.36-.13-.18-.52-.55-.72-.65-4-1.98-7.29-4.7-9.86-8.4-.04-.25.09-.43.29-.38,2.36,1.26,6.13,3.02,8.33,1.17.21-.18.44-.73.45-.98.05-1.19-5.53-2.77-9.21-8.66-.11-.18-.18-.61-.05-.58.13.02.59.1.76.21,3.87,2.54,8.49.99,7.43-.43-1.01-1.34-5.53-2.72-8.15-7.76-1.22-2.34,2.1,1.04,5.23.24.51-.13,1.25-.8,1.31-1.28.17-1.57-3.64-2-6.33-6.26-2.74-4.34-1.76-7.99-3.7-8.26-1.51-.21-1.99,1.54-2.22,2.74-1.91,9.64-9.27,10.55-8.12,12.41.8,1.3,4.01.91,5.71-.22.2-.13,1-.25.86-.1-1.75,4.17-4.4,5.77-7.84,7.99-.4.26-.67,1.04-.48,1.48.14.32.8.7,1.18.7,4.38.09,2.86.04,6.83-1.47-1.63,3.54-4.43,6.05-7.62,8.03-.48.3-1.32,1.03-1.26,1.52.1.89,1.12,1.39,1.82,1.49,2.53.36,4.5-.5,6.6-1.95.29-.25.33-.25.33.26-1.85,3.28-4.91,5.95-8.17,7.84-.51.29-3.77,2.02-2.29,3.02,3.31,2.24,8.28.32,11.12-2.32.25-.15.53-.35.54-.19.02.18.07.64.06.82l-.1,7.29-10.97-1.81-15.07-2.68c-.64-.11-.94-.57-.96-1.12l-.17-4.61c-.02-.65.02-5.56.46-5.23l.36.27c1.96,1.48,4.06,2.74,6.48,3.34,1.89.46,5.6.49,6.66-1.35.48-.84-.2-1.48-.88-1.81-9.02-4.32-12.63-11.6-10.72-10.17,5.79,4.33,11.9,1.93,11.1.25-.38-.8-1.24-1.21-2.08-1.66-7.04-3.72-10.53-10.11-9.42-9.52l.4.22c1.26.67,2.48,1.26,3.88,1.67,1.78.52,5.71.76,6.16-1.85-.46-.48-1.11-.98-1.69-1.29-3.86-2.04-7.01-4.93-9.24-8.76-.08-.12.3-.38.46-.29l.57.3c2.1,1.12,5.38,2.43,7.57.91.34-.23.7-1.14.57-1.52-.14-.41-.73-.89-1.18-1.15-3.44-2.03-6.31-4.59-8.11-8.19.1-.17.27-.47.25-.44,2.11,1.16,4.64,1.99,6.52,1.07.4-.19.96-1.04.85-1.41-.52-1.76-5.13-1.82-8.37-9.03-1.65-3.67-1.23-7.07-3.42-6.76-.59.08-1.17.63-1.34,1.28-.46,1.72-.86,3.34-1.48,5-1.35,3.65-3.82,6.63-7.17,8.61-.47.28-.85.84-.8,1.32.04.38.68.95,1.13,1.04,2.39.46,4.36-.64,6.64-1.66-1.19,3.88-5.55,7.59-8.86,9.44-.59.33-.93,1.13-.82,1.72.47,2.33,6.83.75,8.54-.74.15-.08.31-.14.41-.18,1.14-.39-2.48,5.3-5.49,7.54l-4.32,3.22c-.25.19-.6.88-.5,1.17.49,1.56,2.62,1.46,4.09,1.19,4.06-.75,6.43-3.37,5.99-1.93-2.25,4.42-6.03,7.66-10.38,10.01-.68.37-1.07.65-1.86.19-6.05-3.53-12.66-8.97-15.81-15.22-.08-.15-.19-.5-.23-.63-.03-.1.35.01.45.09l2.14,1.45c1.8,1.22,3.81,1.96,5.91,2.5,2.56.66,5.07.51,7.21-1.15.29-.23.68-.91.74-1.26.05-.31-.31-1.02-.59-1.17-6.47-3.67-13.2-8.53-16.26-15.77.11-.02.33,0,.52.05,2.9,2.1,7.46,4.06,10.92,3.22,1.28-.31,2.68-1.11,2.78-2.59.04-.54-.85-1.34-1.44-1.66-5.41-2.92-10.1-7.34-13.14-12.64-.13-.23-.25-.81-.27-1.03-.02-.17.42.01.62.14,1.97,1.26,3.98,2.31,6.3,2.62,1.57.21,3.15.32,4.34-.77.4-.36.81-1.09.78-1.54-.02-.37-.46-1.07-.81-1.31-1.81-1.26-3.47-2.36-5.15-3.79-3.8-3.22-6.53-7.49-7.75-12.32l-1.3-5.17c-.31-1.22-1.36-1.96-2.48-2.05-1.13-.1-2.29.69-2.62,1.88l-1.8,6.6c-1,3.65-2.87,6.86-5.39,9.68-1.95,2.18-4.27,3.7-6.69,5.3-.64.42-1.06,1.37-.89,2.04.45,1.73,3.21,2.01,5.04,1.7,2.22-.38,4.18-1.14,6.08-2.38.19-.12.62-.34.61-.16,0,.14-.03.62-.13.83-2.21,4.38-6.05,8.56-10.2,11.34l-3.71,2.48c-.4.27-.49,1.46-.23,1.93,1.01,1.85,4.55,1.6,6.49,1.21,3.52-.71,4.58-1.71,7.19-3.03.1-.05.26.12.23.22-.03.12-.13.52-.19.64-3.45,6.26-8.94,11.19-15.37,14.25-.58.28-1.05.61-1.62.25-7.52-4.68-5.32-12.69-8.42-12.09-2.66.51-.39,6.48-7.7,12.18-.75.59-1.61,1.2-2.2,1.94-.53.67.55,1.55,1.18,1.68,1.85.39,3.47-.4,5.07-1.25l.43-.23s.14.34.11.38l-.77,1.29-.2.3-.21.29c-1.69,2.4-3.88,4.26-6.38,5.79-.09.06-.26.15-.3.18l-.26.24-.27.25s-.14.39-.14.48c.04,2.07,3.78,1.79,5.91.73l2.24-1.11c-1.99,3.95-5.03,6.6-8.6,8.63-.53.3-.96.97-.89,1.45.19,1.33,2.88,1.56,4.26,1.26,2.63-.59,2.68-1.08,4.55-1.75.1-.04.07.36.01.45l-.21.34c-2.38,3.78-5.8,6.4-9.69,8.52-.46.25-.26,1.26.08,1.51,3.44,2.55,8.4.09,11.12-2.29l.41-.36c-.05-.17.05.17.13.4v.71s0,.47,0,.47v3.61s0,.49,0,.49c.01.93.11,1.67-.87,1.95-2.42.68-4.59,1.7-6.79,2.84-4.01,2.08-9,5.75-9.55,10.75-.42,3.79,2.91,8.19,7.14,8.19l170.02.07c1.63,0,2.94,1.02,2.98,2.44.04,1.36-1.09,2.52-2.6,2.52l-45.21-.11-8.94-.07c-.92,0-1.95.4-2.49,1.02-.52.59-.81,1.52-.62,2.41.2.97,1.07,2.52,2.31,2.52l23.27.05c1.32,0,2.24,1.61,2.09,2.62-.17,1.12-1.13,2.19-2.4,2.25-2.08.11-4.16.09-6.25-.04-2.61-.16-5.06.02-7.72.03l-33.87.15c-1.81,0-3.22,1.58-3.11,3.14.11,1.62,1.25,3.09,3.05,3.1l25.12.03c.8,0,1.58.62,1.93,1.17.5.78.72,1.93.32,2.69-.28.54-1.19,1.27-1.97,1.28-2.67.05-5.17.07-7.79-.07-2.27-.12-4.41,0-6.71,0l-21.43.13c-1.84.01-3.1.92-3.34,2.68-.17,1.2.61,3.34,2.38,3.35l67.75.1c2.79,0,5.32.23,8.06.06.98-.06,1.91.01,2.93.01l19.87.02c.59,0,1.38-.19,1.9-.11,1.42.22,2.52-.02,3.96-.02l68.78-.05c1.76,0,2.48-2.2,2.35-3.32-.21-1.74-1.53-2.74-3.26-2.75-2.08,0-4.13.01-6.17-.1-1.84-.11-3.56.01-5.43.02l-22.41.05c-1.5,0-2.61-1.12-2.67-2.47-.04-.95.83-2.7,2.11-2.7h17.52c1.9,0,3.41-.97,3.52-2.92.08-1.31-.73-3.38-2.6-3.38h-44.1c-1.27,0-2.08-.46-2.47-1.51-.33-.89-.04-1.89.68-2.63.55-.56,1.13-.84,2.06-.84h115.35c1.54-.01,2.44-1.67,2.53-2.82.07-.95-.66-2.98-2.06-2.98l-40.95-.03c-1.56,0-2.91-.98-2.79-2.41.11-1.4.98-2.54,2.59-2.54l94.23-.02c1.93,0,3.71-.82,4.99-2.04,2.42-2.31,2.17-5.83.14-8.35ZM26.38,188.1c1.42.55,2.58.04,3.89-.4,1.26.03,2.89.68,4.24.6,4.03-.22,7.2-1.94,10.61-4.23-.75,2.34-2.16,4-3.6,5.74-2.99,3.62-6.61,6.54-10.67,8.92l-3.48,2.04c-1.6-1.41-3.26-2.97-4.14-5.17,1.74,1.05,7.73,3.42,8.29-.72-3.51-1.83-6.56-4.41-8.31-8l3.18,1.22ZM22.41,218.96c-.34-1.93-.42-3.69-.25-5.72,2.16,1.89,4.1,3.11,6.92,4.15l-6.67,1.56ZM41.07,216.23l-6.58.56c.48-1.26.24-1.89-.65-2.42-4.53-2.71-6.9-4.11-10.04-9.21,1.61.73,2.81,1.59,4.39,2,2.09.54,4.24.52,6.08-.65l-.13-1.34c5.79-1.02,8.58-2.76,13.29-6.92l.03,17.78-6.4.2ZM87.44,214.84l-.17,4.63-2.62-.45c-7.58-1.3-15.07-2.38-22.75-2.9-2.22-.15-4.17.03-6.4-.37l-.2-10.56c-.05-2.4-.12-4.69-.06-7.14,4.68,4.21,6.87,6.15,12.89,7.33,5.74,1.13,8.31-2.76,8.2-2.77l.93.04c3.36.15,6.07-1.43,9.09-3.38-1.53,3.72-4.4,6.67-7.71,8.86l-4.06,2.67c-.24.16-.58.68-.65.93-.26.95,1.45,2.18,4.05,2.05,3.56-.18,6.56-1.87,9.43-4.32.12,1.91.08,3.62.02,5.37ZM146.87,269.8c-3.63.13-7.16.13-10.75,0-1.29-.05-1.93-1.93-1.66-2.79.37-1.2,1.19-2.12,2.57-2.12h8.91c1.33-.01,2.34.91,2.68,2.18.23.85-.54,2.7-1.74,2.74ZM176.88,258.22l-12.48.22c-2.36.04-6.39.98-6.83-2.19-.14-.98.77-2.63,2.02-2.63l16.76.02c1.09,0,1.91,1.27,2.11,2.04.19.72-.49,2.52-1.57,2.54ZM261.66,247.72l-17.27.02c-1.16,0-1.97-1.18-2.15-2.06-.17-.84.44-2.63,1.61-2.63l18.16.04c1,0,1.76,1.69,1.7,2.43-.06.75-.83,2.19-2.06,2.19ZM339.47,205.69c.28-.1.91-.53,1.08-.81.17-.29-.3-.75-.66-1.29,3.31-.21,5.93-1.49,8.75-3.22-1.77,4.34-4.81,7.61-8.49,9.99-.98.64-2.17.69-3.18.01-2.41-1.62-4.93-3.54-6.15-6.36,2.9,1.81,5.65,2.79,8.66,1.67ZM348.18,222.69l-8.52-1.3-4.44-.51-5.51-.54-.24-6c-.03-.68-.18-1.38.26-1.81,5.38,4.1,9.44,5.33,15.55,2.34,1.87-.91,3.15-2.12,5.1-3.47l.03,11.23c-.69.28-1.46.18-2.23.06Z"
            />
            <path
                d="M71.04,251c.22-1.05-.4-2.63-1.58-3.07-1.64-.61-3.22-.19-4.96-.19l-33.55.04c-1.57,0-2.48,1.76-2.44,3.01.04,1.12.98,2.79,2.44,2.79h37.73c1.4,0,2.18-1.71,2.36-2.58Z"
            />
            <path
                d="M111.4,253.54c1.51,0,2.33-1.84,2.4-2.77.07-1-.67-2.94-2.05-2.95l-26.57-.11-3.6-.03c-1.81-.02-3.45.53-3.87,2.47-.27,1.24.68,3.4,2.44,3.4l31.25-.02Z"
            />
            <path
                d="M86.84,261.62c-.03-1.4-1.05-3.01-2.68-3.01h-25.31c-1.87,0-3.07,1.57-3.01,3.23.05,1.5,1.22,2.97,3,2.97h25.17c1.75,0,2.86-1.87,2.83-3.19Z"
            />
        </g>
        <g id="everett" fill="#653614">
            <path
                d="M197.85,74.05l-10.12-26.9c-1.6-.11-3.53-.05-4.86.19l.58,25.4c.87,1.8-13.5,2.36-13.61.76l-1.87-69.6c-.05-1.98,1.43-3.68,3.3-3.69L198.18,0c6.47-.05,11.88,5.51,11.94,11.83l.2,20.48c.06,6.04-3.56,10.8-9.06,13.48l9.27,24.56c.23.6.1,2.27-.29,2.72s-1.75.83-2.47.84l-9.93.13ZM196.68,30.24l-.1-14.87c0-.96-1.58-2.79-2.73-2.75l-11.81.43.51,21.07,10.59-.22c2.12-.04,3.55-1.62,3.54-3.66Z"
            />
            <path
                d="M31.01,84.42l7.98,16.68,22.21-11.64c2.84,3.51,4.47,6.87,5.63,11.46l-31.15,16.55c-2,1.06-3.78-.02-4.7-1.87L.58,54.38c-.79-1.6-.39-3.73,1.12-4.5l32.04-16.27c2.85,3.8,4.2,6.74,5.82,11.62l-22.26,11.56,7.57,15.7,19.09-9.68,4.97,9.75c.36.7-.51,2.69-1.19,3.05l-16.74,8.81Z"
            />
            <path
                d="M259.86,41.05l-2.15,9.68-19.9-3.27-2.47,17.4,23.93,4.33c.04,4.37-.71,8.16-2.53,12.63l-36.81-6.7,10.16-70.54c.18-1.23,1.96-2.69,3.18-2.47l34.17,6.13c.66,1.7-.81,11.65-2.22,12.73l-23.14-3.97-2.51,17.24,18.16,3.39c1.08.2,2.36,2.27,2.11,3.4Z"
            />
            <path
                d="M131.99,48.7l2.46,17.52,23.35-3.43,1.72,8.28c.19.68-.06,4.25-1.4,4.47l-34.87,5.72-11.29-70.78c-.3-1.87,1.84-2.92,3.34-3.15l33.92-5.14c1.74,4.42,2.13,8.13,1.74,12.67l-23.79,4,2.57,16.87,19.58-2.8c1.74-.58,3.04,12.26,1.95,12.7l-19.28,3.07Z"
            />
            <path
                d="M51.84,26.2l7.84-3.35c1.09-.47,2.9.62,3.64,1.92l23.6,41.68-3.78-50.58,10.23-3.34c.76-.25,2.65-.11,3.03.39.47.62.91,2.15.96,3.33l3.06,69.99c-4.02,2.6-8.15,3.89-13.22,4.86L50.78,31.88c-.47-.76-.97-2.23-1.11-2.91-.16-.81,1.38-2.43,2.17-2.77Z"
            />
            <path
                d="M330.75,109.95c-.4.86-2.96,1.3-3.83.78l-8.02-4.74c-1.07-.63.16-3.68.7-4.83l24.77-52.73-13.26-7.16,3.53-8.67c.39-.94,2.77-2.71,3.62-2.28l36.68,18.68c.41,2.62-3.53,9.51-4.59,10.77-1.74,2.07-10.16-4.57-13.67-5.05l-25.92,55.22Z"
            />
            <path
                d="M290.52,90.42c-2.08,1.35-13.2-1.76-12.97-4.3l14.85-57.5-13.83-4.44c-.26-2.66,1.45-12.31,4.21-12.38l37.54,11.28c.72.22,1.88.84,2.31,1.27.54.53.58,2.51.32,3.24l-3.25,9.03-13.91-3.91-15.28,57.71Z"
            />
        </g>
        <g id="and-me" fill="#666766">
            <path
                d="M125.57,105.44c1.07.08,1.07,1.76,0,1.83-4.64.28-21.75-.97-26.8-.87l13.95-.96c4.22-.29,8.3-.32,12.85,0Z"
            />
            <path
                d="M217.18,119.38l-.65-14.15-2.96,12.76c-.14.59-1.16,1.7-1.7,1.96-.67.32-2.56-.52-2.74-1.27l-3.1-13.45-.72,13.93c-.13,1.08-4.11.93-4.5-.16v-26.53c2.36-.61,5.06-.63,6.77.21l3.77,15.74,3.67-15.76c1.79-.87,4.49-.75,6.85-.12v26.43c0,1-3.64,1.26-4.69.42Z"
            />
            <path
                d="M170.97,119.03c-.01,1.28-4.63,1.25-5.04.03l-4.97-14.51-.5,14.42c-.09,1.24-4.56,1.22-4.71.01l.13-26.32c1.27-.82,4.05-.84,5.56-.29l4.84,14.56.41-13.95c.03-1.19,4.52-1.42,4.51-.18l-.22,26.23Z"
            />
            <path
                d="M189.57,113.07c.02,3.01-1.92,5.98-4.7,6.43-3.23.53-6.67.45-9.99.16l-.28-27.44c5.14-.54,14.82-1.61,14.87,5.71l.1,15.13ZM184.7,111.57l-.25-14.08c-.43-1.05-3.27-1.38-4.76-1.08l-.03,18.35c.45.68,2.86.84,3.6.41s1.46-2.15,1.44-3.6Z"
            />
            <path
                d="M147.99,117.18l-.57-2.72c-.17-.79-4.94-.58-5.04-.22l-.68,2.42c-.33,1.18-.64,2.48-1.17,3.07-.64.7-3.6.1-3.98-.69l4.75-26.55c2.19-.51,4.57-.55,6.77,0l5.14,26.06c.15.77-2.35,1.72-3.09,1.49-.89-.27-1.89-1.73-2.13-2.86ZM146.93,109.64l-2.27-10.22-1.86,10.5,4.13-.28Z"
            />
            <path
                d="M236.13,107.61l-5.91.54-.16,7.15,7.68.33c1.16.05,1.13,4.16-.01,4.17l-12.29.1-.1-27.84,12.59.08c.37.94.38,3.51-.02,4.27l-7.83.26.05,6.83,6.2.38c.66.13.57,3.67-.19,3.74Z"
            />
            <path
                d="M249.58,105.44c-1.07.08-1.07,1.76,0,1.83,4.64.28,21.75-.97,26.8-.87l-13.95-.96c-4.22-.29-8.3-.32-12.85,0Z"
            />
        </g>

    </g>
</svg>
