<?xml version="1.0" encoding="UTF-8"?><svg id="Layer_1" xmlns="http://www.w3.org/2000/svg" viewBox="0 0 32 32"><rect width="32" height="32" fill="#efdecd"/><path d="M15.39,13.35l.13-6.45,9.28-.09c.28-1.88.33-3.08.02-4.81h-13.29c-.63,0-1.12.65-1.12,1.31l-.21,25.29c0,.76.4,1.42,1.24,1.4l13.05-.25c.39-1.71.41-3.09.06-4.72l-9.27.13.16-6.84s-.1-5.03-.03-4.96Z" fill="#653514"/><g id="plane"><path d="M21.47,15.91l.18-.55c.03-.11.04-.29.02-.4-.11-.58-.85-.38-1.21-.26l-.7.23c-.45.15-.89.2-1.37.17-.31-.4-.18-.4-.67-.72.48-.22.9-.45,1.33-.68l.89-.48,2.69-1.45.96-.51c.52-.28,1.76-.85,2.31-.89.44-.03.88-.03,1.31.16-.25.04-1.3-.03-1.19.41.09.35.84-.23,1.78-.07.18.03.36.11.45.27.26.47-.34,1.08-.68,1.34-.67.53-1.38.98-2.13,1.39l-1.33.71-1.79.95-.55.29c-.09.05-.14.08-.3.1ZM23.12,12.31c.06.09.17.1.25.04.05-.04.09-.13.09-.21,0-.07-.11-.14-.19-.14-.14.01-.22.19-.14.31ZM22.81,12.36c-.08-.07-.18-.04-.24.02-.07.08-.1.21-.01.29.07.07.2.03.26-.03.07-.08.07-.2-.01-.28ZM22.29,12.79c0-.06-.1-.14-.16-.14s-.16.06-.19.11c-.06.1-.04.2.04.26s.18.04.24-.04c.03-.04.07-.12.08-.18ZM21.35,13.27c.07.16.26.11.33,0,.06-.09.04-.26-.1-.29-.13-.03-.29.15-.23.28ZM21.1,13.59c.06-.09.03-.2-.04-.25-.09-.06-.17-.02-.24.06-.08.09-.08.2.02.27.08.06.2.03.26-.08ZM20.54,13.75c-.01-.06-.09-.12-.13-.11-.05,0-.12.04-.16.08-.07.07-.08.18-.03.25.04.06.16.09.23.04.07-.06.12-.13.09-.25ZM19.95,14.02c-.11-.11-.25-.03-.28.07s0,.24.14.24c.05,0,.13-.06.15-.1.02-.05.03-.17-.01-.2ZM19.35,14.55c.08-.08.09-.2,0-.28-.04-.04-.15-.04-.2-.01-.04.02-.11.09-.11.15,0,.07.02.17.1.2.06.02.14,0,.2-.06Z" fill="#333"/><path d="M12.57,20.17l-1.33.34-.68.15-.69.15c-.29.06-.59.09-.89.14-.16.02-.36-.03-.43-.19.01-.04.11-.06.15-.09.35-.2.67-.41,1-.63.21-.14.72-.48.85-.69-.11-.09-.22-.11-.35-.11l-1.03-.06c-.13,0-.26-.03-.39-.06l-1.02-2.23c-.05-.11-.13-.3-.07-.4.06-.11.52-.45.76-.25l1.62,1.33c.33.27.65.51.99.74.14.09.29.07.43,0,.3-.15.58-.3.88-.47l1.14-.63.59-.29c.39.67.94.37,1.05.47.02.02-.03.09-.05.11-.22.16-.43.31-.6.51-.2.22-.31.56-.15.82.17.29.53.41.86.41.04,0,.09.02.15.05l-.26.09c-.84.29-1.66.58-2.52.8ZM13.74,17.94c.05-.07.04-.19-.02-.24-.05-.04-.17-.04-.23,0s-.09.14-.08.19.08.13.14.14c.07.01.15-.04.19-.1ZM13.18,18.22c.03-.07.01-.16-.02-.19-.05-.04-.14-.05-.2-.01s-.12.14-.11.21c.01.05.1.13.15.14.06,0,.15-.06.19-.14ZM12.6,18.39c-.02-.05-.11-.11-.16-.1-.11.02-.17.11-.17.2,0,.06.06.18.13.18.16,0,.25-.15.2-.29ZM12.01,18.73c-.01-.09-.1-.14-.17-.14-.05,0-.13.07-.16.13s0,.16.06.21c.04.04.13.04.18.01.07-.04.1-.11.08-.22Z" fill="#333"/><path d="M15.95,18.92c-.33.08-1.24.14-1.38-.25-.05-.14-.03-.27.05-.39.33-.5.95-.73.91-.81l-.07-.16c.67-.18,1.32-.38,1.95-.69s.89-.55.97-1.26l.66-.02c.23,0,.47-.03.7-.11l1.19-.41c.16-.06.4-.03.47.13.08.19,0,.4-.05.58-.21.69-.65,1.07-1.26,1.44-.97.59-1.96,1.11-3,1.56-.38.17-.74.29-1.14.38Z" fill="#333"/><path d="M14.58,15.7c-.31.3-.61.62-.52,1.11l-1.64-.37-1.98-.41-3.38-.74-1.65-.36c-.4-.09.77-.49.8-.51l1.82.14,1.24.1,2.23.18,3.79.34-.71.52Z" fill="#333"/><path d="M17.48,16.26c-.44.27-1.23.57-1.72.7-.34.09-1.02.3-1.28.03-.3-.31-.09-.74.22-1.01.65-.58,1.39-1.03,2.19-1.4.04.13-.01.21-.01.31,0,.45.16.9.48,1.21.05.05.11.09.14.17Z" fill="#333"/><path d="M21.85,18.23l-.43.1c-.15.04-.29.03-.4-.06s-.19-.22-.19-.38c0-.22.12-.4.28-.55.39-.37.81-.66,1.25-.95.26-.18.52-.35.86-.37-.13.54,0,1.06.38,1.44.03.03,0,.13-.03.15-.53.27-1.14.48-1.74.62Z" fill="#333"/><path d="M8.96,20.24c-.08.05-.18.15-.27.13l-3.1-.65c-.16-.03-.29-.03-.44-.13.25-.23.58-.41.94-.39l2.82.19,1.15.09-1.11.76Z" fill="#333"/><path d="M24.79,19.07c-.18.12-.33.1-.5.05l-.9-.24-1.61-.36.8-.23c.46-.13.88-.3,1.3-.56.2.14.37.28.55.43l.67.55s.03.15,0,.17l-.29.2Z" fill="#333"/><path d="M21.92,16.43c-.36.24-1.22.79-1.3,1.21-.1.22-.05.45.08.68l-1.73-.4,1.37-.84c.38-.24.7-.52.99-.87.05-.04.12-.06.17-.04.35.15.62.13.43.26Z" fill="#333"/><path d="M5.69,14.44l-.4.14c-.1.04-.2.07-.32.07l-.79-1.12c-.17-.23-.33-.47-.48-.73.05-.11.29-.22.39-.14.26.2.46.45.68.69l.59.63c.14.15.29.24.48.34-.02.03-.09.08-.15.1Z" fill="#333"/><path d="M17.9,15.95c-.43.44-1.1-1.07-.65-1.39.09-.06.25-.03.36.03.46.23.66.99.3,1.37Z" fill="#333"/><path d="M24.09,17.28c-.07.09-.2.1-.28.03-.49-.42-.53-1.19-.26-1.31.08-.04.24-.04.31,0,.24.15.32.4.35.66.03.22.04.42-.11.62Z" fill="#333"/><path d="M12.01,21.14l-1.34-.25c.13-.06.26-.1.39-.11.34-.05.65-.11.98-.18.14,0,.33.16.38.29-.04.13-.25.29-.41.26Z" fill="#333"/></g></svg>